<svg xmlns="http://www.w3.org/2000/svg" >
	<symbol id="webStormIcon" viewBox="-5 -5 80 80">
		<linearGradient id="c" x1="25.068" x2="43.183" y1="1.4599" y2="66.675" gradientUnits="userSpaceOnUse">
		<stop stop-color="#00CDD7" offset=".2849"/>
            <stop stop-color="#2086D7" offset=".9409"/>
	</linearGradient>
        <polygon points="9.4 63.3 0 7.3 17.5 0.1 28.6 6.7 38.8 1.2 60.1 9.4 48.1 70" fill="url(#c)"/>
        <linearGradient id="b" x1="30.72" x2="61.365" y1="9.7343" y2="54.671" gradientUnits="userSpaceOnUse">
		<stop stop-color="#FFF045" offset=".1398"/>
            <stop stop-color="#00CDD7" offset=".3656"/>
	</linearGradient>
        <polygon points="70 23.7 61 1.4 44.6 0 19.3 24.3 26.1 55.6 38.8 64.6 70 46 62.3 31.7" fill="url(#b)"/>
        <linearGradient id="a" x1="61.082" x2="65.106" y1="15.29" y2="29.544" gradientUnits="userSpaceOnUse">
		<stop stop-color="#00CDD7" offset=".2849"/>
            <stop stop-color="#2086D7" offset=".9409"/>
 </linearGradient>
        <polygon points="56 20.4 62.3 31.7 70 23.7 64.4 9.8" fill="url(#a)"/>
        <rect x="13.4" y="13.4" width="43.2" height="43.2"/>
        <rect x="17.5" y="48.5" width="16.2" height="2.7" fill="#fff"/>
        <path d="m38.7 34.3 2.3-2.8c1.6 1.3 3.3 2.2 5.3 2.2 1.6 0 2.5-0.6 2.5-1.7v-0.1c0-1-0.6-1.5-3.6-2.3-3.6-0.9-5.8-1.9-5.8-5.5v-0.1c0-3.3 2.6-5.4 6.2-5.4 2.6 0 4.8 0.8 6.6 2.3l-2 3c-1.6-1.1-3.1-1.8-4.6-1.8s-2.3 0.7-2.3 1.6v0.1c0 1.2 0.8 1.6 3.8 2.4 3.6 1 5.6 2.3 5.6 5.4v0.1c0 3.6-2.7 5.6-6.5 5.6-2.7-0.1-5.4-1.1-7.5-3"
              fill="#fff"/>
        <polygon
                points="35.2 19 32.5 29.4 29.5 19 26.5 19 23.4 29.4 20.7 19 16.6 19 21.7 36.9 25 36.9 28 26.5 30.9 36.9 34.3 36.9 39.4 19"
                fill="#fff"/>

	</symbol>
    <g id="cssIcon">
		<path d="M22.3653 101.154L13.9428 7.4375H106.523L98.089 101.139L60.1765 111.562L22.3653 101.154Z"
              fill="#1572B6"/>
        <path d="M60.2328 103.597L90.8703 95.174L98.0778 15.1019H60.2328V103.597Z" fill="#33A9DC"/>
        <path d="M60.2328 49.054H75.5703L76.6278 37.2842H60.2328V25.7896H89.2953L89.0178 28.8724L86.1715 60.5487H60.2328V49.054Z"
              fill="white"/>
        <path d="M60.304 78.9045L60.2515 78.9193L47.344 75.4609L46.519 66.2942H34.8828L36.5065 84.3413L60.2478 90.8788L60.304 90.864V78.9045Z"
              fill="#EBEBEB"/>
        <path d="M74.584 60.0615L73.189 75.4534L60.2628 78.9119V90.8714L84.0228 84.3412L84.199 82.4001L86.2128 60.0615H74.584Z"
              fill="white"/>
        <path d="M60.274 25.7896V37.2842H32.2765L32.044 34.6997L31.5153 28.8724L31.2378 25.7896H60.274ZM60.2328 49.054V60.5487H47.4865L47.254 57.9642L46.729 52.1369L46.4515 49.054H60.2328Z"
              fill="#EBEBEB"/>
	</g>

    <g id="htmlIcon">

<path d="M22.9817 102.004L14.5554 7.5H107.143L98.7054 101.989L60.7929 112.5L22.9817 102.004Z" fill="#E44F26"/>
        <path d="M60.8492 104.468L91.4867 95.9738L98.6942 15.2288H60.8492V104.468Z" fill="#F1662A"/>
        <path d="M60.8492 50.2762H45.5117L44.4542 38.4075H60.8492V26.8162H31.7867L32.0642 29.9287L34.9104 61.8675H60.8492V50.2762ZM60.8492 80.3775L60.7967 80.3925L47.8892 76.9087L47.0642 67.665H35.4279L37.0517 85.86L60.7967 92.4525L60.8492 92.4375V80.3775Z"
              fill="#EBEBEB"/>
        <path d="M60.8079 50.2762V61.8675H75.0804L73.7379 76.9012L60.8079 80.3887V92.4487L84.5717 85.86L84.7442 83.9025L87.4667 53.3887L87.7517 50.2762H60.8079ZM60.8079 26.8162V38.4075H88.8054L89.0379 35.805L89.5667 29.9287L89.8442 26.8162H60.8079Z"
              fill="white"/>
	</g>

    <g id="jsIcon">
		<path d="M8.11639 7.5H113.116V112.5H8.11639V7.5Z" fill="#F5DE19"/>
        <path d="M78.6501 89.5312C79.5448 91.3485 80.9347 92.8759 82.6598 93.9375C84.3848 94.9991 86.3747 95.5515 88.4001 95.5313C92.4876 95.5313 95.1014 93.4875 95.1014 90.6562C95.1014 87.2812 92.4164 86.0738 87.9164 84.105L85.4489 83.0475C78.3239 80.0138 73.5989 76.215 73.5989 68.1825C73.5989 60.7838 79.2239 55.1475 88.0476 55.1475C90.904 54.9412 93.7579 55.5805 96.2534 56.9856C98.7488 58.3907 100.775 60.4994 102.08 63.0488L94.3664 67.98C93.864 66.716 92.9892 65.6345 91.858 64.879C90.7268 64.1236 89.3927 63.7298 88.0326 63.75C87.4392 63.6906 86.84 63.7555 86.273 63.9404C85.7061 64.1254 85.1839 64.4265 84.7397 64.8244C84.2956 65.2224 83.9392 65.7085 83.6932 66.2518C83.4473 66.7951 83.3173 67.3837 83.3114 67.98C83.3114 70.9388 85.1451 72.1388 89.3789 73.98L91.8464 75.0375C100.231 78.6338 104.971 82.2975 104.971 90.5363C104.971 99.42 97.9926 104.287 88.6214 104.287C84.97 104.52 81.3293 103.691 78.1387 101.901C74.948 100.11 72.3438 97.4342 70.6401 94.1963L78.6501 89.5312ZM43.7939 90.3863C45.3426 93.135 46.7526 95.46 50.1426 95.46C53.3826 95.46 55.4301 94.1925 55.4301 89.2612V55.71H65.2964V89.3925C65.2964 99.6075 59.2964 104.257 50.5626 104.257C47.4755 104.426 44.4095 103.657 41.7677 102.051C39.126 100.444 37.0321 98.0761 35.7614 95.2575L43.7939 90.3863Z"
              fill="black"/>
	</g>

    <symbol id="reactIcon" viewBox="0 -10 120 120">
		<g clip-path="url(#clip0_13_2986)">
<path d="M93.1056 32.7027C91.9031 32.2887 90.6904 31.9051 89.4687 31.5523C89.6739 30.7106 89.8628 29.8792 90.0305 29.0623C92.7838 15.6483 90.9839 4.84178 84.8361 1.28375C78.9416 -2.12722 69.3016 1.42949 59.5659 9.93342C58.6064 10.773 57.6682 11.6368 56.7521 12.524C56.1389 11.934 55.5149 11.3556 54.8803 10.7888C44.6767 1.69616 34.4493 -2.13608 28.3081 1.43215C22.4189 4.85374 20.675 15.0127 23.1538 27.7254C23.4004 28.9844 23.6788 30.237 23.9888 31.4819C22.5411 31.8947 21.1442 32.3342 19.8073 32.8019C7.84441 36.9881 0.204742 43.5483 0.204742 50.3529C0.204742 57.3808 8.40627 64.43 20.8661 68.7043C21.8763 69.0495 22.8948 69.3692 23.9209 69.6634C23.5876 71.0042 23.2918 72.354 23.0337 73.7114C20.6706 86.2035 22.516 96.1223 28.3893 99.5222C34.4555 103.033 44.637 99.4247 54.5506 90.7268C55.3545 90.0196 56.1407 89.2925 56.9084 88.546C57.9004 89.5066 58.9189 90.4393 59.9627 91.343C69.566 99.6365 79.0501 102.985 84.9177 99.5762C90.9782 96.055 92.948 85.3995 90.3907 72.4356C90.1892 71.42 89.9633 70.4094 89.7132 69.4047C90.4282 69.1921 91.13 68.9732 91.8141 68.7455C104.767 64.4384 113.195 57.4747 113.195 50.3529C113.195 43.5234 105.309 36.919 93.1056 32.7027ZM90.2962 64.1474C89.6783 64.3525 89.0445 64.5505 88.3983 64.7432C86.9683 60.1995 85.0386 55.3684 82.6769 50.3764C84.9305 45.5036 86.786 40.734 88.1759 36.22C89.3318 36.5558 90.4534 36.9097 91.5347 37.2832C101.991 40.8961 108.369 46.2372 108.369 50.3529C108.369 54.7367 101.481 60.4277 90.2962 64.1474ZM85.6557 73.3765C86.7865 79.1087 86.9476 84.2916 86.1986 88.3435C85.5259 91.9844 84.1727 94.4115 82.499 95.3839C78.9385 97.4526 71.3235 94.7637 63.111 87.6706C62.1401 86.8305 61.1927 85.9634 60.2699 85.0703C63.4539 81.5756 66.6357 77.5131 69.7412 73.0008C75.2036 72.5144 80.3641 71.7188 85.0439 70.6331C85.2694 71.5426 85.4734 72.4573 85.6557 73.3765ZM38.7257 95.0264C35.2468 96.2592 32.4759 96.2946 30.8009 95.3254C27.2369 93.2624 25.7552 85.298 27.7762 74.6151C28.0165 73.3527 28.2915 72.0972 28.6011 70.8502C33.2293 71.8779 38.3523 72.6168 43.8275 73.0624C46.9542 77.4776 50.2278 81.5358 53.5271 85.0894C52.8259 85.7703 52.1082 86.4338 51.3745 87.0793C46.9904 90.9252 42.5974 93.654 38.7257 95.0264ZM22.4277 64.1204C16.9181 62.2302 12.368 59.7738 9.24929 57.0933C6.44659 54.6848 5.032 52.2932 5.032 50.3529C5.032 46.2234 11.1657 40.9564 21.3962 37.3766C22.6378 36.9425 23.9372 36.5327 25.2856 36.1482C26.6997 40.7641 28.5544 45.5904 30.7925 50.4707C28.5252 55.4233 26.6441 60.3267 25.2163 64.997C24.2797 64.7278 23.3499 64.4355 22.4277 64.1204ZM27.891 26.7947C25.7676 15.9031 27.1777 7.68706 30.7268 5.62497C34.5067 3.42867 42.8653 6.56011 51.6755 14.4115C52.25 14.9247 52.8152 15.4482 53.3708 15.9819C50.0879 19.52 46.8443 23.548 43.7454 27.9371C38.4313 28.4315 33.3445 29.2253 28.6678 30.2889C28.3797 29.131 28.1206 27.9661 27.891 26.7951V26.7947ZM76.6301 38.8739C75.5255 36.9589 74.3798 35.0679 73.194 33.2024C76.7991 33.66 80.2533 34.2673 83.4969 35.0098C82.5233 38.1425 81.3095 41.4175 79.8808 44.7753C78.8365 42.7867 77.7527 40.8191 76.6301 38.8739ZM56.7544 19.4443C58.9806 21.8652 61.2104 24.5678 63.4036 27.5003C58.9546 27.2894 54.4982 27.2886 50.0491 27.4977C52.2444 24.5922 54.4932 21.8931 56.7544 19.4443ZM36.751 38.9071C35.6425 40.8367 34.5789 42.792 33.5613 44.7713C32.1559 41.4255 30.9532 38.1355 29.9712 34.9584C33.1949 34.2346 36.6327 33.6427 40.2149 33.1935C39.0159 35.0704 37.8609 36.9754 36.751 38.9067V38.9071ZM40.3177 67.8569C36.6169 67.4423 33.1274 66.881 29.9045 66.1767C30.902 62.9429 32.1312 59.5829 33.567 56.1653C34.5887 58.1461 35.6567 60.1026 36.77 62.033C37.9149 64.0176 39.1004 65.9614 40.3177 67.8569ZM56.8876 81.6027C54.5996 79.1255 52.3177 76.3848 50.0892 73.4372C52.2528 73.5222 54.4583 73.5656 56.7001 73.5656C59.0031 73.5656 61.2797 73.5138 63.5205 73.4137C61.3203 76.4145 59.0989 79.1592 56.8876 81.6027ZM79.9263 55.9907C81.4366 59.446 82.7095 62.7883 83.7203 65.9667C80.4444 66.7171 76.9073 67.3214 73.1804 67.7701C74.3746 65.8699 75.5311 63.9461 76.6491 61.9998C77.7858 60.0214 78.8784 58.0179 79.9263 55.9907ZM72.468 59.5794C70.7564 62.5634 68.9487 65.4909 67.0475 68.357C63.6038 68.6018 60.1524 68.7234 56.7001 68.7216C53.1837 68.7216 49.7635 68.6118 46.47 68.3974C44.5192 65.5378 42.677 62.6053 40.9471 59.6059H40.9476C39.2259 56.6225 37.6177 53.5745 36.1265 50.4685C37.6139 47.3618 39.2172 44.3124 40.933 41.3267L40.9326 41.3271C42.6477 38.3407 44.4753 35.4206 46.4113 32.5734C49.7714 32.3182 53.2172 32.1853 56.6996 32.1853H56.7001C60.1984 32.1853 63.6485 32.3195 67.0078 32.5765C68.9243 35.4195 70.7402 38.3295 72.4521 41.301C74.1736 44.2801 75.7981 47.3147 77.3231 50.3999C75.8138 53.5166 74.1944 56.5783 72.468 59.5794ZM82.4253 5.48056C86.2087 7.67067 87.6802 16.5024 85.303 28.0842C85.1512 28.8231 84.9808 29.5757 84.7954 30.339C80.1072 29.2528 75.0169 28.4452 69.6874 27.9433C66.5828 23.506 63.3656 19.4717 60.1361 15.9792C60.9825 15.1604 61.849 14.3628 62.7349 13.5871C71.0768 6.30141 78.8732 3.42468 82.4253 5.48056ZM56.7001 40.2263C62.2724 40.2263 66.7898 44.7603 66.7898 50.3529C66.7898 55.9456 62.2724 60.4795 56.7001 60.4795C51.1278 60.4795 46.6104 55.9456 46.6104 50.3529C46.6104 44.7603 51.1278 40.2263 56.7001 40.2263Z"
      fill="#00D8FF"/>
</g>
        <defs>
<clipPath id="clip0_13_2986">
<rect width="113" height="101" fill="white" transform="translate(0.200012)"/>
</clipPath>
</defs>
	</symbol>

    <symbol id="githubIcon" viewBox="-15 -15 120 120">
		<path fill-rule="evenodd" clip-rule="evenodd"
              d="M44 0C19.69 0 0 19.69 0 44C0 63.47 12.595 79.915 30.085 85.745C32.285 86.13 33.11 84.81 33.11 83.655C33.11 82.61 33.055 79.145 33.055 75.46C22 77.495 19.14 72.765 18.26 70.29C17.765 69.025 15.62 65.12 13.75 64.075C12.21 63.25 10.01 61.215 13.695 61.16C17.16 61.105 19.635 64.35 20.46 65.67C24.42 72.325 30.745 70.455 33.275 69.3C33.66 66.44 34.815 64.515 36.08 63.415C26.29 62.315 16.06 58.52 16.06 41.69C16.06 36.905 17.765 32.945 20.57 29.865C20.13 28.765 18.59 24.255 21.01 18.205C21.01 18.205 24.695 17.05 33.11 22.715C36.63 21.725 40.37 21.23 44.11 21.23C47.85 21.23 51.59 21.725 55.11 22.715C63.525 16.995 67.21 18.205 67.21 18.205C69.63 24.255 68.09 28.765 67.65 29.865C70.455 32.945 72.16 36.85 72.16 41.69C72.16 58.575 61.875 62.315 52.085 63.415C53.68 64.79 55.055 67.43 55.055 71.555C55.055 77.44 55 82.17 55 83.655C55 84.81 55.825 86.185 58.025 85.745C66.7597 82.796 74.3497 77.1822 79.7268 69.6937C85.1039 62.2052 87.9974 53.219 88 44C88 19.69 68.31 0 44 0Z"
              fill="black"/>
	</symbol>

    <g id="greensockIcon">
		<path d="M67.8306 119.745C66.2668 119.471 64.6468 118.729 63.7281 117.908C63.1044 117.253 62.7485 116.389 62.7306 115.485C62.7306 114.566 63.1993 113.276 63.9418 111.99C64.3918 111.266 64.7443 110.486 64.9956 109.665C65.1531 109.099 65.4831 108.18 65.7381 107.595L66.1881 106.523L66.3043 99.3563C66.3643 95.3925 66.4806 91.7213 66.5781 91.1513C66.8331 89.5088 67.2606 87.9075 67.8268 86.3475L68.2581 85.3125L67.6318 84.9413C67.0656 84.5888 66.5968 84.1013 64.7406 81.8925C62.4568 79.1963 59.4493 77.7113 55.1893 77.205C53.8018 77.07 52.3956 76.9688 50.9893 76.9125C44.7381 76.62 41.1643 75.3113 37.9431 72.1463C35.5393 69.7838 34.2906 67.0275 33.7843 62.9663C33.1018 57.4763 32.3406 54.6638 30.9343 52.38C30.5877 51.816 30.1885 51.2861 29.7418 50.7975L29.1756 50.2313L27.9268 51.0338C27.2443 51.4838 26.2843 52.05 25.8156 52.305C24.2518 53.1638 22.7668 54.12 21.3418 55.155C17.8468 57.6938 14.0368 60.8775 11.9481 62.9663C11.0106 63.9038 10.5231 64.3125 10.3056 64.275C8.88058 64.0613 9.97183 57.8888 12.2968 53.2388C15.2668 47.2425 20.2656 41.715 26.0481 37.9838C30.7956 34.9163 38.4718 30.6975 42.0231 29.2125C48.3306 26.5763 56.4943 23.7225 62.0818 22.2C63.2556 21.8663 63.9756 21.5738 64.4631 21.2438C65.5581 20.4825 66.6306 20.1113 67.8606 20.0925C68.8956 20.0738 68.9931 20.055 69.9906 19.3875C71.1643 18.6263 71.5131 18.585 72.6868 18.9975L73.4481 19.2713L74.3856 18.6263L75.3231 18L76.6693 18.0188C77.7043 18.0375 78.1731 18 78.6231 17.805C79.1893 17.55 79.2081 17.5125 79.3656 16.575C79.7181 14.5425 79.7556 13.5263 79.5418 12.2963C79.2681 10.6763 79.2306 4.3875 79.5043 3.15375C79.7968 1.82625 79.9918 1.5525 80.9893 1.065C82.4743 0.341252 83.5881 0.127502 86.1456 0.127502C89.2693 0.127502 90.8518 0.558753 92.0256 1.69125C93.0793 2.7075 93.2556 5.08875 92.7081 10.6763C92.3743 13.8975 92.3368 14.7975 92.4343 16.905C92.4718 18.2513 92.5693 19.5225 92.6106 19.6988C92.6893 20.0325 92.7681 20.0513 93.9006 20.07C95.0143 20.0888 95.2093 20.1488 96.2631 20.6963C97.2793 21.225 98.0406 21.87 98.1981 22.3388C98.2168 22.4363 98.3931 22.4363 98.7043 22.3388C99.3081 22.1625 99.8368 22.3575 100.268 22.8863C100.523 23.22 100.677 23.2763 101.266 23.2763C102.068 23.2763 102.361 23.4713 103.024 24.45C103.335 24.8893 103.76 25.2344 104.254 25.4475C105.349 25.995 106.834 27.5175 107.401 28.7288C108.278 30.525 108.454 32.6138 107.907 34.4888C107.712 35.1938 107.712 35.2125 108.121 35.895C108.979 37.3613 109.294 39.1575 108.942 40.68L108.747 41.58L109.332 42.165C112.242 45.075 111.811 49.8225 108.259 54.06C107.862 54.544 107.527 55.0756 107.262 55.6425C106.579 57.4575 105.796 58.7288 104.783 59.7825L103.748 60.8363H102.694C101.641 60.8363 100.156 60.4838 99.2556 60.015C98.8843 59.82 98.8656 59.82 98.9443 60.0525C99.1806 60.9113 99.7656 64.4063 99.9606 66.3413C100.272 69.3113 100.174 73.6275 99.7656 75.4838C99.4669 76.8586 98.9664 78.1816 98.2806 79.41C97.8906 80.0363 97.8718 80.1713 97.9468 80.9325C98.0631 82.005 97.8118 83.805 97.3806 84.9938C96.8518 86.3813 96.6568 87.0263 96.5406 87.7275C96.4431 88.3313 96.4431 88.3313 96.8743 88.3313C97.4406 88.3313 97.7518 88.665 97.7518 89.3288C97.7518 89.6213 97.4968 91.2038 97.1856 92.8238C96.3268 97.3763 96.2668 97.8825 96.2668 102.296C96.2481 106.849 96.2481 106.808 97.2831 107.49L99.6081 108.994C101.608 110.321 103.75 111.422 105.994 112.275C109.257 113.565 109.707 113.895 109.707 114.99C109.707 115.478 109.609 115.654 109.201 116.044C107.952 117.255 105.488 117.529 100.527 117C97.9488 116.758 95.3611 116.635 92.7718 116.629C85.9356 116.531 84.9381 116.295 84.0418 114.596C83.5356 113.621 83.6331 112.35 84.3343 110.261C84.6456 109.343 84.9193 108.405 85.1556 107.449C85.6243 105.184 85.3131 102.488 84.2181 99.4425L83.2806 96.8438C82.3618 94.2075 81.8556 89.3813 82.4031 88.29C82.5006 88.0763 82.6768 88.035 83.1456 88.0538L83.7306 88.1138L84.2181 87.0975C84.5893 86.295 84.9981 85.77 86.1118 84.6563L87.5368 83.2313L87.4581 82.3125C87.3981 81.435 86.2468 77.175 86.0893 77.1938C86.0293 77.1938 85.7181 77.625 85.3656 78.1688C84.5068 79.4588 82.6131 81.45 81.5368 82.1738C81.0681 82.485 80.6781 82.8563 80.6781 82.9763C80.6593 83.505 80.2093 84.54 79.6618 85.26C79.1331 85.965 79.0956 86.0813 79.1743 86.7038C79.3093 87.6225 79.0168 90.57 78.6681 92.115C78.352 93.2622 77.9197 94.3742 77.3781 95.4338C76.0318 98.2275 75.0156 100.725 74.7606 101.88C74.5764 102.992 74.4587 104.114 74.4081 105.24C74.3481 106.568 74.2131 107.858 74.1156 108.131C73.9806 108.503 73.9806 108.795 74.0968 109.361C74.1943 109.77 74.2543 110.689 74.2318 111.413C74.2131 112.41 74.2918 113.055 74.5843 114.225C75.0906 116.216 75.1881 117.469 74.9556 118.211C74.7981 118.68 74.6443 118.856 74.1156 119.111C72.9418 119.715 69.6231 120.049 67.8268 119.738L67.8306 119.745ZM72.5743 118.144C73.2568 117.949 73.8456 117.364 73.8456 116.835C73.8456 116.599 73.6506 115.916 73.4143 115.313C72.9456 114.161 72.1431 111.113 72.1431 110.606C72.1431 110.351 72.1618 110.333 72.5518 110.546L72.9831 110.783V110.235C72.9205 109.73 72.8087 109.233 72.6493 108.75C72.2781 107.636 72.2406 107.618 69.8743 107.479L68.2731 107.4L67.6881 107.966C67.3664 108.297 67.0845 108.665 66.8481 109.061C66.5931 109.568 66.4956 110.333 66.6531 110.505C66.6906 110.565 67.0843 110.505 67.5118 110.408C67.7656 110.332 68.0274 110.287 68.2918 110.273C68.2918 110.291 67.8606 110.644 67.3168 111.015C64.9731 112.774 64.1518 113.846 64.1518 115.215C64.1518 116.64 65.4981 117.754 67.6093 118.088C69.0531 118.301 71.8656 118.361 72.5706 118.148L72.5743 118.144ZM104.352 115.819C104.937 115.114 104.858 114.394 104.116 113.573C103.684 113.141 103.197 112.77 102.649 112.478C102.102 112.185 101.554 111.851 101.007 111.503C100.017 110.861 98.9994 110.261 97.9581 109.706C97.0581 109.219 96.1806 108.709 95.3218 108.165L94.9693 107.891V102.521C94.9693 97.23 94.9506 97.1513 94.6768 97.23C93.3081 97.6013 91.0431 97.7775 88.1743 97.7175L85.0693 97.68L85.5193 98.775C86.3593 100.845 86.7906 103.62 86.7906 106.804C86.7906 107.996 86.7118 108.424 86.4193 109.264C86.2618 109.673 86.1268 110.085 85.9881 110.494C85.9281 110.67 86.1456 110.805 86.9443 111.041C87.5293 111.218 88.3881 111.394 88.8793 111.45L89.7793 111.548L89.6818 112.448C89.5843 113.464 89.7006 114.536 89.9556 114.87C90.1131 115.065 90.6981 115.144 93.4131 115.26C95.4643 115.358 97.6918 115.571 99.4468 115.826C100.969 116.063 102.612 116.258 103.099 116.258C103.921 116.276 103.999 116.239 104.348 115.826L104.352 115.819ZM73.0843 106.68C73.1631 106.62 73.2793 105.566 73.3206 104.318C73.4781 100.823 73.6131 100.313 75.3718 96.3675C76.8156 93.1463 77.5806 90.1388 77.5206 88.0088L77.4831 86.7375L76.9356 87.2663C75.8031 88.3988 76.5831 86.6213 77.9331 85.0388C78.9493 83.8275 79.3018 83.1638 79.4556 82.0913C79.5343 81.66 79.6918 81.4463 80.3556 80.94C82.8391 79.0639 84.7527 76.5349 85.8831 73.635C86.1568 72.93 86.8581 70.53 87.4468 68.3025C88.5418 64.1813 89.1268 62.4038 89.6556 61.6425C89.8506 61.35 89.9293 61.29 89.8918 61.485C89.6086 62.5324 89.387 63.5955 89.2281 64.6688C89.0706 65.625 88.7781 67.5 88.5831 68.8088C88.2118 71.4863 87.8218 73.2038 87.2931 74.5313L86.9406 75.4313L87.8781 77.8538C88.8531 80.3325 89.3031 82.1325 89.3818 83.8688L89.4418 84.8438L88.6806 85.0013C87.6758 85.1791 86.7792 85.7396 86.1793 86.565C85.5156 87.5213 85.1443 88.305 85.3206 88.4775C85.3993 88.5563 86.3556 88.7325 87.4506 88.8675C89.1493 89.0625 89.7943 89.0625 92.0406 88.9275C93.0156 88.89 93.9756 88.7925 94.9318 88.6538C95.1456 88.575 95.3631 88.1475 95.7118 87.0338C96.5143 84.4763 96.6681 83.5763 96.5706 81.78L96.4918 80.1975L96.9006 79.6688C97.8568 78.4575 98.5993 76.2713 98.9106 73.71C99.2818 70.5863 98.5993 64.0425 97.3281 58.4175C96.7243 55.74 96.4693 54.1388 96.4693 52.9688V51.9338L95.5131 52.0313C92.0743 52.4025 87.9156 52.305 85.3768 51.7763C83.9893 51.5025 80.4943 50.4675 79.7331 50.1338L79.1293 49.86L79.0506 50.5425C78.9906 50.9138 78.9343 51.285 78.8556 51.675C78.7393 52.0838 78.7768 52.1813 79.5006 52.8863C80.4006 53.805 80.6743 54.2738 80.6743 54.8963C80.6743 55.2863 80.4606 55.6013 79.3656 56.7338C78.5805 57.5715 77.7094 58.3244 76.7668 58.98L75.4956 59.8388L74.9481 61.7325C72.9943 68.6663 72.6231 74.9738 73.9131 79.485L74.2243 80.6175L73.5981 81.3975C71.2543 84.345 69.8668 86.5913 69.6531 87.8438C69.5281 88.4605 69.3843 89.0733 69.2218 89.6813C68.7156 91.6163 68.3218 94.4475 68.1493 97.515C68.0291 100.083 67.8604 102.648 67.6431 105.21L67.5456 105.971L68.5206 106.264C69.0681 106.44 69.8893 106.635 70.3581 106.714C71.2356 106.849 72.8593 106.811 73.1106 106.676L73.0843 106.68ZM92.0481 95.9363C93.5706 95.8388 94.9581 95.6025 95.2318 95.37C95.3481 95.2913 95.4868 94.8825 95.5243 94.47L95.6218 93.7275L94.4106 94.0013C93.4543 94.1963 92.4981 94.3125 91.5381 94.3913C89.2318 94.4888 86.9106 94.4288 84.6231 94.1963C83.8618 94.08 83.8618 94.08 84.0943 95.0738C84.2893 95.8163 84.3306 95.8538 86.3218 95.9925C87.6493 96.1088 89.5056 96.09 92.0443 95.9325L92.0481 95.9363ZM90.7768 92.5388C92.7681 92.3625 95.2506 91.935 95.7381 91.68C95.8956 91.6013 96.0306 91.3088 96.0906 90.975L96.2668 89.94L96.3643 89.4525L95.8768 89.55C93.7093 90 92.0668 90.135 88.7856 90.135C85.5831 90.135 85.2118 90.1163 84.3718 89.8238C84.049 89.6877 83.7053 89.6078 83.3556 89.5875C83.2206 89.6663 83.1981 90.78 83.3181 91.56C83.3968 92.0288 83.4756 92.1075 83.9443 92.2425C85.4293 92.6513 87.9306 92.7488 90.7806 92.5163L90.7768 92.5388ZM54.5293 74.9213C59.5281 73.4775 66.0718 69.2363 71.4231 63.9263C73.1631 62.1863 73.3768 61.9538 73.6093 61.1738L73.9206 60.1763C73.9581 60.0975 73.6468 59.9625 73.2381 59.865C72.1656 59.61 71.3443 58.9875 71.3443 58.4213C71.3443 58.0875 71.1493 57.7575 70.5831 57.15C69.6643 56.115 69.4318 55.665 69.3343 54.6713L69.2556 53.8688L68.1606 53.0888C67.5343 52.6388 65.3481 51.4275 63.0231 50.2575C61.2528 49.3939 59.52 48.4555 57.8293 47.445C55.8756 46.1363 54.5668 44.5725 53.8243 42.72C53.6893 42.3488 53.5131 42.0375 53.4531 42.0375C53.2956 42.0375 48.9006 46.275 47.0256 48.2663C42.3981 53.1488 39.2143 57.3863 37.2006 61.3125C36.6943 62.2875 36.1468 63.4425 35.9893 63.87L35.6968 64.65L36.0493 65.9588C36.2631 66.6638 36.7131 67.815 37.0656 68.4975C38.2956 70.92 39.7618 72.3825 42.1843 73.575C44.7831 74.865 47.0856 75.315 50.9331 75.255C53.0031 75.2363 53.6106 75.1763 54.5256 74.9025L54.5293 74.9213ZM15.0756 57.7913C18.3568 54.8813 22.8868 51.6975 28.4368 48.3975C32.0706 46.23 46.1143 39.1988 52.5793 36.3263C53.7531 35.7975 54.8068 35.31 54.9231 35.2538C55.0393 35.175 55.3731 34.335 55.6843 33.3975C57.0531 29.0625 57.7356 28.2038 60.2143 27.6375C60.5256 27.5588 60.6043 27.4613 60.6043 27.15C60.6043 26.5838 60.9943 25.275 61.3281 24.69C61.5831 24.24 61.5831 24.2213 61.3656 24.2813C61.2306 24.3188 60.4093 24.555 59.5506 24.81C47.6368 28.2488 37.2268 32.8163 28.2418 38.52C18.6531 44.6138 13.1256 51.9188 11.5243 60.6675L11.4081 61.3125L12.5818 60.1613C13.2081 59.5163 14.3406 58.4625 15.0831 57.8175L15.0756 57.7913ZM103.456 59.4525C104.412 58.965 105.897 56.7188 106.444 54.9413C106.602 54.315 106.913 53.73 107.363 53.2425C108.807 51.6413 109.999 48.7313 110.018 46.74C110.018 43.635 108.259 42.4425 105.702 43.77C105.368 43.9275 105.098 44.0438 105.057 44.0063C104.922 43.8713 105.642 43.1663 106.523 42.6188C107.674 41.8575 107.892 41.4075 107.892 39.7875C107.909 38.4781 107.52 37.1955 106.778 36.1163C106.426 35.5875 106.291 35.2388 106.347 35.0213L106.699 33.7125C107.187 31.9725 107.011 29.9813 106.249 28.7138C105.117 26.8013 103.729 25.8638 101.794 25.7063L100.662 25.6275L101.326 26.37C103.298 28.5 104.254 31.1738 103.864 33.4613C103.669 34.635 103.493 34.8675 102.361 35.3175L101.697 35.5913L101.776 36.4913C101.911 37.9575 101.659 39.03 100.722 41.0025C100.253 42 99.9006 42.8963 99.9418 42.9938C100.058 43.3275 101.348 43.95 102.364 44.205L103.362 44.4413L102.736 44.655C101.914 44.91 101.738 45.2813 101.738 46.6275C101.738 47.8575 101.914 48.3675 102.811 49.7138C103.219 50.2988 103.493 50.9063 103.534 51.255C103.613 51.8025 103.594 51.84 103.144 51.9975C102.634 52.1407 102.11 52.2262 101.581 52.2525C99.7431 52.3688 99.6081 52.4288 98.7868 53.2088C98.0443 53.9138 98.0256 53.9513 98.0256 54.7313C98.0256 55.8038 98.4343 57.975 98.6893 58.2675C99.0231 58.62 100.876 59.5388 101.599 59.6738C102.224 59.8305 102.883 59.7545 103.456 59.46V59.4525ZM76.4031 57.99C77.5956 57.0525 78.5331 56.115 79.0581 55.3125C79.3918 54.825 79.4106 54.7275 79.2531 54.315C78.9793 53.6888 77.1831 52.0688 76.1856 51.5813C75.5209 51.2835 74.8179 51.0802 74.0968 50.9775L72.8668 50.82L72.1056 49.8638C70.5231 47.91 69.6456 46.3875 68.3931 43.4363C67.2981 40.935 66.3418 39.4725 64.8193 38.025C64.1931 37.44 63.7468 36.9525 63.7843 36.9525C63.8631 36.9525 64.6056 37.3238 65.4643 37.7738C66.8893 38.535 67.0656 38.595 67.7106 38.4975C70.0356 38.2238 72.0868 35.55 72.8293 31.8C73.0431 30.7463 73.4743 29.67 73.9243 29.025C73.9431 29.0063 74.8431 29.5913 75.8968 30.3525C78.5743 32.2463 79.1593 32.5388 80.6818 32.5988C81.6793 32.6363 82.2456 32.5613 84.0418 32.13C87.8706 31.1925 92.0106 30.8213 94.5306 31.155C95.9556 31.35 98.0068 31.9763 99.5293 32.6963C101.033 33.4013 101.326 33.4388 101.813 33.0075C102.222 32.655 102.222 32.5988 102.222 31.29C102.203 29.355 101.498 27.2663 100.426 26.0175C99.8781 25.3725 98.3368 24.3188 96.8106 23.5163C96.268 23.2285 95.728 22.936 95.1906 22.6388C94.4668 22.2075 93.6493 22.2675 91.4218 22.8525C88.8418 23.5163 88.1593 23.5163 85.2118 22.755C82.7106 22.1288 82.5568 22.11 80.0931 22.5C78.7843 22.695 75.5031 22.5788 74.4081 22.2863C73.8606 22.1288 73.3131 21.975 72.7881 21.78C71.8318 21.4088 70.1706 21.3488 68.6668 21.6225C65.6781 22.1513 63.4131 23.7713 62.5918 25.9763C62.1606 27.09 62.2206 27.6188 62.7868 27.9675C63.6868 28.5338 64.8756 30.0788 64.8756 30.6825C64.8756 30.72 64.5831 30.4688 64.2493 30.1163C63.4093 29.2388 62.6481 28.845 61.7481 28.845C61.1658 28.8612 60.5996 29.0397 60.1132 29.3603C59.6269 29.681 59.2398 30.1311 58.9956 30.66C58.7328 31.35 58.5112 32.055 58.3318 32.7713C57.7843 34.7625 57.2968 35.82 56.2618 37.2263C55.3431 38.4975 55.2081 39.0638 55.5381 40.4888C56.3593 44.0813 57.7843 45.5288 63.7393 48.9075C66.8631 50.685 68.4643 51.6825 69.6381 52.56C70.5381 53.2238 70.5568 53.265 70.4781 53.7713C70.3018 54.945 71.0443 56.2125 72.5106 57.2475C72.8818 57.5025 73.1143 57.7763 73.1143 57.9713C73.1143 58.3238 74.1118 58.8113 74.8318 58.8113C75.2406 58.8113 75.5556 58.635 76.3956 57.99H76.4031ZM100.486 51.405C102.751 51.4838 102.867 51.3075 101.659 49.9013C100.388 48.435 100.039 47.2463 100.508 45.9375L100.703 45.4313L99.9006 45.0413C99.6268 44.9063 99.3531 44.7675 99.0793 44.67C98.9443 45.1988 98.8056 45.705 98.6893 46.2338C98.3968 47.4263 98.0443 50.5125 98.0256 51.8213C98.0256 51.9375 98.2206 51.9 98.5543 51.6863C99.0231 51.4125 99.2593 51.375 100.489 51.4125L100.486 51.405ZM92.8881 51.2888C94.2568 51.21 95.6631 51.1125 96.0343 51.0525L96.7168 50.955L96.7956 48.7088C96.9118 45.5063 97.3806 43.6125 98.7681 40.5825C99.7431 38.4338 100.174 36.5588 99.9606 35.1525C99.8818 34.5488 99.8443 34.5075 99.0231 34.155C97.5193 33.5579 95.9533 33.1315 94.3543 32.8838C92.8131 32.67 88.2793 32.7863 86.5806 33.12C85.8756 33.2363 84.5893 33.51 83.7306 33.7238C81.6006 34.2113 80.4681 34.155 78.8481 33.45C77.2468 32.745 76.2306 32.1038 75.2743 31.2038C74.5131 30.4988 74.4343 30.4613 74.2393 30.6975C74.0818 30.8738 74.0031 31.4025 73.9468 32.535C73.8868 34.275 73.6131 35.19 72.8518 36.42C72.6827 36.6731 72.5383 36.9418 72.4206 37.2225C72.4206 37.2825 73.0056 37.965 73.7293 38.7075C76.2306 41.3063 77.4606 41.97 79.4331 41.8313C80.0781 41.7713 80.5281 41.7938 80.5281 41.8688C80.5281 42.0263 79.2568 43.02 78.7318 43.2938C78.4768 43.4288 78.4206 43.5675 78.4581 43.86L78.7693 45.9113C78.9456 47.085 79.0806 47.6288 79.2568 47.7863C79.7256 48.1763 82.1481 49.4288 83.6706 50.0513C85.6618 50.8538 86.7568 51.1463 88.2793 51.2813C90.1543 51.4388 90.1918 51.4388 92.8881 51.2813V51.2888ZM76.7368 49.14C76.7743 49.08 76.6393 47.9475 76.3843 46.6388C76.0731 44.8613 75.8968 44.2163 75.7018 44.04C75.5668 43.9238 74.8431 43.4138 74.1193 42.8888C73.1684 42.205 72.2674 41.4543 71.4231 40.6425L70.0768 39.315L69.3531 39.6863L68.5918 40.095C68.6559 40.4001 68.7606 40.6952 68.9031 40.9725C69.1168 41.4413 69.5481 42.5925 69.8593 43.53C70.6806 45.9713 71.3256 47.145 72.9456 49.2713L73.5493 50.0738L74.7006 50.25C75.3456 50.3475 75.9906 50.4863 76.1668 50.5425C76.4406 50.6588 76.4781 50.6025 76.5568 49.9763C76.5943 49.7025 76.6543 49.41 76.7331 49.1363L76.7368 49.14ZM101.483 24.8438C102.481 24.7463 102.657 24.6075 102.226 24.1613C101.952 23.8875 101.326 23.8688 100.819 24.1013C100.486 24.2588 100.411 24.2175 99.8818 23.6513C99.3343 23.0475 99.2968 23.025 98.6106 23.1038C97.9843 23.1825 97.8868 23.1638 97.8081 22.9088C97.5642 22.4899 97.2611 22.1084 96.9081 21.7763C96.4645 21.2722 95.91 20.8781 95.2881 20.625C94.0768 20.1563 93.3943 20.2163 92.2393 20.8613C88.8981 22.6763 89.0368 22.6575 85.8118 21.8363C82.8043 21.075 80.5581 20.295 79.8343 19.8038C79.2306 19.395 77.9406 18.945 76.8643 18.8063C76.0618 18.69 75.5556 18.8663 74.7943 19.4888L74.3856 19.8225L74.7568 20.4675C75.2631 21.3675 75.2068 21.4238 74.4456 20.76C73.6243 20.0775 72.6493 19.6088 72.0231 19.5863C71.5731 19.5863 70.2456 20.1713 70.0881 20.4263C70.0281 20.505 70.4406 20.6025 70.9881 20.64C71.5543 20.7 72.3343 20.895 72.8631 21.1088C74.2318 21.6938 74.9331 21.8888 76.1818 22.0088C77.5506 22.1438 80.0293 21.99 80.3218 21.7538C80.4793 21.6188 80.9068 21.5963 81.8068 21.675C82.9993 21.7538 83.4868 21.87 86.3181 22.6313C87.9606 23.0813 89.1118 23.04 91.0656 22.515C91.9656 22.26 93.0981 22.0088 93.5668 21.9488C94.3693 21.87 94.5231 21.9113 95.7756 22.4775C97.7668 23.3775 98.8243 23.9438 99.4093 24.4688C99.9943 24.975 100.073 24.975 101.479 24.8588L101.483 24.8438ZM90.3493 21.4275L91.5418 20.8013L91.5043 19.59C91.4856 18.75 91.4443 17.9288 91.4068 17.1113L91.3093 15.8625L90.1168 16.7813C89.4118 17.3288 88.7293 17.7375 88.4368 17.7975C87.5781 17.955 83.3406 17.7975 82.9468 17.5838C82.4223 17.1963 81.9317 16.7647 81.4806 16.2938L80.3856 15.18L80.3668 15.8438C80.3668 16.1963 80.3293 16.8 80.2506 17.1713C80.1531 17.8763 80.1531 17.895 80.9143 18.8513C81.3231 19.38 81.6568 19.8488 81.6568 19.905C81.6568 20.2763 87.3006 22.035 88.5718 22.0538C88.9806 22.0538 89.4906 21.8775 90.3493 21.4275ZM88.0843 16.9913C89.4906 16.7175 90.1731 15.7013 90.7018 13.125C91.2493 10.35 91.5231 5.99625 91.2681 4.14C91.0318 2.46 89.1568 1.7175 85.5831 1.83375C83.3556 1.9125 82.4368 2.12625 81.6756 2.77125C81.2068 3.16125 81.2068 3.2025 80.9931 5.055C80.6031 8.61 81.1881 13.6688 82.2043 15.5625C82.6918 16.4813 83.1231 16.8113 84.0193 16.9688C85.0356 17.145 87.2031 17.145 88.0806 16.9875L88.0843 16.9913Z"
              fill="black"/>
	</g>

    <symbol id="figmaIcon" viewBox="0 0 200 300">
	<style type="text/css">.st0{fill:#0acf83}.st1{fill:#a259ff}.st2{fill:#f24e1e}.st3{fill:#ff7262}.st4{fill:#1abcfe}</style>
        <title>Figma.logo</title>
        <desc>Created using Figma</desc>
        <path id="path0_fill" class="st0" d="M50 300c27.6 0 50-22.4 50-50v-50H50c-27.6 0-50 22.4-50 50s22.4 50 50 50z"/>
        <path id="path1_fill" class="st1" d="M0 150c0-27.6 22.4-50 50-50h50v100H50c-27.6 0-50-22.4-50-50z"/>
        <path id="path1_fill_1_" class="st2" d="M0 50C0 22.4 22.4 0 50 0h50v100H50C22.4 100 0 77.6 0 50z"/>
        <path id="path2_fill" class="st3" d="M100 0h50c27.6 0 50 22.4 50 50s-22.4 50-50 50h-50V0z"/>
        <path id="path3_fill" class="st4"
              d="M200 150c0 27.6-22.4 50-50 50s-50-22.4-50-50 22.4-50 50-50 50 22.4 50 50z"/>
	</symbol>

    <symbol id="gitIcon" viewBox="-5 -5 120 120">
		<g clip-path="url(#clip0_13_2984)">
<path d="M103.62 47.8219L57.7758 1.98038C55.1372 -0.6598 50.8552 -0.6598 48.2134 1.98038L38.6937 11.5001L50.7699 23.5763C53.5762 22.6281 56.7943 23.2642 59.0313 25.5012C61.2789 27.7525 61.9106 30.9981 60.9393 33.8134L72.5775 45.452C75.3932 44.482 78.6421 45.1095 80.891 47.3621C84.034 50.5039 84.034 55.596 80.891 58.7399C77.7471 61.8841 72.655 61.8841 69.5095 58.7399C67.1454 56.3733 66.5613 52.9013 67.7582 49.9888L56.9046 39.1352L56.9034 67.6973C57.6902 68.0863 58.4088 68.6002 59.0313 69.2189C62.1743 72.3607 62.1743 77.4532 59.0313 80.5995C55.8874 83.7422 50.7929 83.7422 47.6535 80.5995C44.5105 77.4532 44.5105 72.3611 47.6535 69.2193C48.4067 68.4658 49.3019 67.869 50.2872 67.4635V38.6352C49.3004 38.2324 48.4048 37.6353 47.6535 36.8793C45.2722 34.5013 44.6996 31.0071 45.9198 28.0831L34.0154 16.1775L2.58106 47.6099C-0.0603455 50.2525 -0.0603455 54.5349 2.58106 57.1755L48.4259 103.018C51.0652 105.658 55.3464 105.658 57.9891 103.018L103.619 57.3884C106.26 54.747 106.26 50.4621 103.619 47.8219"
      fill="#DE4C36"/>
</g>
        <defs>
<clipPath id="clip0_13_2984">
<rect width="105" height="105" fill="white" transform="translate(0.600006)"/>
</clipPath>
</defs>
	</symbol>

    <symbol id="bootstrapIcon" viewBox="-16 -16 120 120">
		<g clip-path="url(#clip0_13_2990)">
<path d="M0.399963 75.7821C0.399963 81.9781 5.48024 87 11.7468 87H77.0528C83.3204 87 88.4 81.9774 88.4 75.7821V11.2182C88.4 5.02187 83.3197 0 77.0531 0H11.7472C5.47956 0 0.399963 5.02255 0.399963 11.2179V75.7818V75.7821Z"
      fill="#563D7C"/>
            <path d="M36.8918 38.4832V26.1629H47.8612C48.9062 26.1629 49.9134 26.2489 50.8834 26.4212C51.8535 26.5931 52.7118 26.9003 53.4581 27.3431C54.2041 27.786 54.8012 28.4007 55.2491 29.1875C55.6966 29.9746 55.9208 30.9829 55.9208 32.2121C55.9208 34.4255 55.2491 36.0241 53.9057 37.0076C52.5627 37.9915 50.8463 38.4832 48.7567 38.4832H36.8918ZM25.1758 17.1621V69.8379H50.9955C53.3835 69.8379 55.7093 69.5429 57.9729 68.9526C60.2365 68.3623 62.2513 67.4525 64.0174 66.223C65.7833 64.9934 67.1889 63.407 68.2335 61.4645C69.2785 59.5216 69.8007 57.2222 69.8007 54.5663C69.8007 51.2709 68.9922 48.4553 67.3755 46.1192C65.7585 43.7828 63.3083 42.1474 60.0248 41.2129C62.4128 40.0819 64.2165 38.6307 65.4354 36.8601C66.654 35.0895 67.2635 32.8765 67.2635 30.2203C67.2635 27.7612 66.853 25.6956 66.0322 24.0232C65.2113 22.3512 64.0546 21.0108 62.562 20.0025C61.0698 18.9942 59.2788 18.2686 57.1892 17.8262C55.0999 17.3833 52.7864 17.1621 50.2492 17.1621H25.1758ZM36.8918 60.8371V46.3771H49.6521C52.1893 46.3771 54.2292 46.9548 55.7716 48.111C57.3136 49.2668 58.085 51.1971 58.085 53.9023C58.085 55.2797 57.8485 56.4107 57.3758 57.296C56.9032 58.1813 56.269 58.8823 55.4728 59.3986C54.6771 59.9151 53.7565 60.2839 52.7118 60.5054C51.6668 60.7263 50.5727 60.8371 49.4283 60.8371H36.8918Z"
                  fill="white"/>
</g>
        <defs>
<clipPath id="clip0_13_2990">
<rect width="88" height="87" fill="white" transform="translate(0.399963)"/>
</clipPath>
</defs>
	</symbol>

    <symbol id="sassIcon" viewBox="0 -15 120 120">
		<g clip-path="url(#clip0_13_2988)">
<path d="M101.473 50.0766C97.4031 50.0975 93.8654 51.0694 90.9035 52.5063C89.8163 50.3721 88.7295 48.4708 88.538 47.076C88.3246 45.4493 88.0691 44.4561 88.3246 42.5122C88.5805 40.5683 89.7313 37.8001 89.7098 37.589C89.6888 37.3778 89.4539 36.3846 87.1099 36.3637C84.7659 36.3424 82.7413 36.8073 82.5069 37.42C82.2724 38.0326 81.825 39.4273 81.5266 40.8637C81.1217 42.9771 76.8386 50.5198 74.3881 54.471C73.5993 52.9291 72.9175 51.5765 72.768 50.499C72.5551 48.8722 72.2991 47.879 72.5551 45.9351C72.811 43.9912 73.9617 41.2235 73.9403 41.0119C73.9188 40.8007 73.6843 39.8075 71.3403 39.7866C68.9959 39.7653 66.9713 40.2302 66.7373 40.8429C66.5029 41.4559 66.247 42.8923 65.7571 44.2871C65.2667 45.6818 59.5769 58.275 58.0853 61.5285C57.4824 62.8453 56.8501 64.1487 56.1887 65.4376C56.1887 65.4376 56.1672 65.501 56.1032 65.6066C55.8954 66.0107 55.6824 66.4122 55.4643 66.811V66.8318C55.1444 67.4028 54.8035 67.9307 54.633 67.9307C54.5051 67.9307 54.2706 66.4095 54.6755 64.3387C55.5278 59.9652 57.5524 53.1615 57.5314 52.9291C57.5314 52.8022 57.9148 51.6191 56.2102 51.006C54.5476 50.3934 53.9512 51.4075 53.8017 51.4075C53.6527 51.4075 53.5458 51.7668 53.5458 51.7668C53.5458 51.7668 55.4003 44.118 50.0085 44.118C46.6418 44.118 41.9958 47.7734 39.6943 51.0694C37.078 52.4811 34.4639 53.8968 31.8521 55.3166C30.5953 56.0139 29.2951 56.7113 28.0804 57.3661C27.9949 57.2818 27.9099 57.1758 27.8244 57.0915C21.3034 50.1822 9.24203 45.3012 9.75342 36.0257C9.94537 32.6449 11.1171 23.7705 32.9178 12.9947C50.8609 4.22583 65.1392 6.65549 67.6111 12.0436C71.1484 19.7349 59.9608 34.0183 41.4204 36.0887C34.3455 36.8708 30.6373 34.1661 29.7 33.152C28.7197 32.0953 28.5703 32.0318 28.2079 32.2435C27.6115 32.5606 27.9949 33.5113 28.2079 34.0605C28.7622 35.4969 31.0422 38.0326 34.8994 39.2796C38.3091 40.378 46.5988 40.991 56.6361 37.1454C67.8666 32.8348 76.6467 20.8546 74.0682 10.8183C71.4893 0.633908 54.4411 -2.72556 38.3091 2.95799C28.7197 6.33921 18.32 11.6634 10.8402 18.594C1.95366 26.834 0.54699 33.997 1.12236 36.9976C3.18987 47.6465 18.0006 54.5771 23.9248 59.7114C23.6264 59.8804 23.349 60.0286 23.115 60.1555C20.1526 61.6132 8.85814 67.4658 6.04526 73.6568C2.84894 80.6716 6.55711 85.7009 9.00759 86.3765C16.6154 88.4686 24.4362 84.7076 28.6343 78.4953C32.8323 72.2834 32.321 64.2119 30.3819 60.5144C30.3604 60.4722 30.3394 60.4296 30.2964 60.3875C31.0637 59.9439 31.8521 59.479 32.6194 59.0354C34.0297 58.2088 35.4578 57.4126 36.9029 56.6474C36.1781 58.6126 35.6452 60.958 35.3898 64.3387C35.0699 68.3113 36.7105 73.4665 38.863 75.4947C39.8223 76.3828 40.9516 76.4037 41.6764 76.4037C44.1908 76.4037 45.3206 74.3329 46.5778 71.8819C48.112 68.8818 49.4972 65.3954 49.4972 65.3954C49.4972 65.3954 47.771 74.8191 52.4595 74.8191C54.1641 74.8191 55.8902 72.6214 56.6576 71.5017V71.5226C56.6576 71.5226 56.7001 71.4592 56.7855 71.3114C56.956 71.0368 57.0625 70.8674 57.0625 70.8674V70.8257C57.7443 69.6421 59.279 66.9587 61.559 62.5004C64.4998 56.7534 67.3342 49.5696 67.3342 49.5696C67.3342 49.5696 67.5901 51.3232 68.4635 54.239C68.9753 55.9505 70.0401 57.831 70.8929 59.648C70.2111 60.5991 69.7847 61.127 69.7847 61.127L69.8061 61.1483C69.2518 61.8665 68.6554 62.6481 67.9946 63.4094C65.6716 66.1558 62.9017 69.3045 62.5178 70.2126C62.0699 71.2901 62.1769 72.0722 63.0296 72.7062C63.6475 73.1711 64.7553 73.234 65.885 73.1711C67.9735 73.0229 69.4437 72.5158 70.1681 72.1991C71.2978 71.7976 72.619 71.1846 73.8548 70.276C76.1353 68.6067 77.52 66.2192 77.3925 63.0714C77.3285 61.3386 76.7531 59.6059 76.0498 57.9787C76.2632 57.6833 76.4547 57.3874 76.6681 57.0915C80.2694 51.8724 83.0612 46.1462 83.0612 46.1462C83.0612 46.1462 83.3172 47.8998 84.1905 50.8161C84.6169 52.2951 85.4907 53.901 86.2575 55.4643C82.8693 58.1903 80.7808 61.3594 80.0349 63.4302C78.6927 67.2759 79.7365 69.0082 81.7185 69.4097C82.6134 69.6 83.8921 69.1772 84.8298 68.7757C86.0231 68.3956 87.4298 67.7408 88.7725 66.7684C91.0529 65.0995 93.2475 62.775 93.1195 59.6272C93.0555 58.1903 92.6721 56.7743 92.1392 55.4009C95.0161 54.2182 98.7243 53.563 103.455 54.1122C113.599 55.2953 115.602 61.5706 115.218 64.2123C114.835 66.8531 112.704 68.29 112.001 68.7336C111.297 69.1777 111.063 69.3254 111.127 69.6421C111.212 70.107 111.553 70.0862 112.15 70.0014C112.981 69.8537 117.478 67.8672 117.669 63.0075C117.989 56.7956 112.022 50.0132 101.473 50.0766ZM23.2215 76.2346C19.8542 79.8687 15.1662 81.2421 13.1417 80.0803C10.9682 78.8333 11.8205 73.4665 15.9546 69.6213C18.469 67.2759 21.7083 65.0991 23.8608 63.7683C24.3507 63.4724 25.0755 63.0501 25.9493 62.5217C26.0983 62.437 26.1838 62.3948 26.1838 62.3948L26.6952 62.0776C28.2079 67.5713 26.7592 72.4103 23.2215 76.2346ZM47.7285 59.7114C46.5563 62.543 44.1058 69.7903 42.6142 69.3888C41.3354 69.0508 40.5466 63.5571 42.3582 58.1269C43.2745 55.4009 45.2136 52.147 46.3433 50.8796C48.1759 48.8509 50.2005 48.1744 50.6904 48.9991C51.3087 50.0766 48.4529 57.9365 47.7285 59.7114ZM67.9521 69.3041C67.4617 69.5578 66.9933 69.7269 66.7798 69.6C66.6309 69.5153 66.9933 69.1772 66.9933 69.1772C66.9933 69.1772 69.5292 66.473 70.5305 65.2473C71.1063 64.5291 71.7877 63.684 72.5126 62.7329V63.0075C72.5126 66.2405 69.3583 68.4169 67.9516 69.3041H67.9521ZM83.5511 65.7756C83.1887 65.5219 83.2527 64.6768 84.4674 62.0355C84.9363 61.0001 86.0441 59.2678 87.9412 57.5985C88.1541 58.2746 88.3036 58.9298 88.2821 59.5424C88.2606 63.6205 85.3202 65.1417 83.5511 65.7756Z"
      fill="#CD6799"/>
</g>
        <defs>
<clipPath id="clip0_13_2988">
<rect width="117" height="87" fill="white" transform="translate(0.799988)"/>
</clipPath>
</defs>
	</symbol>

    <symbol id="vectorIcon" viewBox="-5 -5 120 120">
		<path d="M72.7792 69.5627C76.6509 69.1619 79.5882 65.8242 79.4546 61.8184C79.3214 57.8131 75.9833 54.6086 71.9779 54.6086H71.7111C67.5718 54.7422 64.3677 58.2135 64.5013 62.3525C64.6349 64.3553 65.4357 66.091 66.6374 67.2926C62.098 76.2385 55.1554 82.7807 44.7415 88.2549C37.6652 91.9934 30.3222 93.3287 22.9792 92.3943C16.971 91.593 12.298 88.923 9.3603 84.5164C5.08817 77.9742 4.68776 70.8975 8.29268 63.8213C10.8296 58.7475 14.8345 55.009 17.3714 53.1398C16.8374 51.4041 16.0361 48.4668 15.6357 46.3307C-3.72371 60.35 -1.72084 79.3094 4.15375 88.2549C8.55949 94.9311 17.505 99.0701 27.3849 99.0701C30.055 99.0701 32.7251 98.8029 35.3955 98.1357C52.4853 94.7975 65.4361 84.65 72.7792 69.5627ZM96.2775 53.0066C86.1304 41.1234 71.1771 34.5811 54.0873 34.5811H51.9513C50.7496 32.1779 48.2128 30.5754 45.4091 30.5754H45.1419C41.0033 30.709 37.7992 34.1803 37.9324 38.3197C38.066 42.325 41.4037 45.5295 45.4091 45.5295H45.6759C48.6132 45.3959 51.1501 43.5266 52.2181 40.9898H54.6214C64.7685 40.9898 74.3812 43.927 83.0599 49.6684C89.7353 54.0746 94.5419 59.816 97.2119 66.7586C99.4816 72.3664 99.348 77.8406 96.9447 82.5139C93.2066 89.5902 86.9316 93.4623 78.6537 93.4623C73.3132 93.4623 68.2398 91.8598 65.5693 90.6582C64.1009 91.9934 61.4304 94.1295 59.5611 95.4652C65.3025 98.1352 71.1771 99.6041 76.7845 99.6041C89.6017 99.6041 99.0812 92.5275 102.686 85.4512C106.558 77.707 106.291 64.3553 96.2775 53.0066ZM28.4529 71.832C28.5865 75.8377 31.9242 79.0418 35.9296 79.0418H36.1968C40.3357 78.9086 43.5398 75.4369 43.4062 71.2979C43.273 67.2922 39.9349 64.0881 35.9296 64.0881H35.6628C35.3955 64.0881 34.9947 64.0881 34.7283 64.2213C29.2542 55.1422 26.9845 45.2623 27.7857 34.5807C28.3193 26.5697 30.9898 19.6266 35.6628 13.8852C39.5345 8.94508 47.0111 6.5418 52.0849 6.40861C66.2369 6.14139 72.2447 23.7656 72.6455 30.8422C74.3812 31.2426 77.3185 32.1775 79.3214 32.8451C77.7189 11.2156 64.3677 0 51.5509 0C39.5345 0 28.4529 8.67869 24.0468 21.4963C17.9054 38.5865 21.9107 55.009 29.3874 67.9602C28.7201 68.8947 28.3193 70.3635 28.4529 71.8324V71.832Z"
              fill="#764ABC"/>
	</symbol>

    <g id="tailwindIcon">
		<path d="M36.8438 56.0844C40.6646 40.801 50.2167 33.1594 65.5 33.1594C88.425 33.1594 91.2906 50.3531 102.753 53.2187C110.395 55.1292 117.081 52.2635 122.812 44.6219C118.992 59.9052 109.44 67.5469 94.1562 67.5469C71.2313 67.5469 68.3656 50.3531 56.9031 47.4875C49.2615 45.5771 42.575 48.4427 36.8438 56.0844ZM8.1875 90.4719C12.0083 75.1885 21.5604 67.5469 36.8438 67.5469C59.7687 67.5469 62.6344 84.7406 74.0969 87.6062C81.7385 89.5167 88.425 86.651 94.1562 79.0094C90.3354 94.2927 80.7833 101.934 65.5 101.934C42.575 101.934 39.7094 84.7406 28.2469 81.875C20.6052 79.9646 13.9187 82.8302 8.1875 90.4719Z"
              fill="#44A8B3"/>
	</g>

    <symbol id="styledComponentsIcon" width="105px" height="105px" viewBox="0 0 120 120">
        <g clip-path="url(#clip0_1_1803)">
            <path d="M68.7673 118.279C68.9473 117.872 69.4015 117.589 69.7315 117.246C74.7666 111.967 79.8446 106.735 84.8111 101.391C86.3653 99.9558 87.5662 98.1804 88.32 96.2036C89.0739 94.2269 89.3601 92.1026 89.1563 89.9968C89.0004 89.0951 88.7958 88.2025 88.5435 87.3229C87.1894 88.6084 85.9296 89.7783 84.6611 90.9567C82.6899 92.7908 80.7273 94.6334 78.739 96.4461C77.5665 97.6415 76.059 98.4531 74.4156 98.7737C72.7721 99.0943 71.0701 98.9087 69.5344 98.2416C67.9797 97.6705 66.627 96.6553 65.6443 95.3221C64.6616 93.9889 64.092 92.3965 64.0064 90.7425C63.9604 90.5297 63.8988 90.3206 63.8222 90.1168C62.3095 91.4024 60.8611 92.5851 59.4256 93.8021L29.5877 119.085C29.382 119.261 29.1591 119.479 28.9663 119.65H68.7459L68.6859 119.612C68.4716 119.462 68.583 118.673 68.7673 118.279Z" fill="#FFCEBF"/>
            <path d="M27.1436 118.279C27.4974 117.818 27.9245 117.418 28.4077 117.096L69.7 82.0642C72.5168 79.6731 75.3207 77.2691 78.1118 74.8522C78.4567 74.6118 78.727 74.2791 78.8918 73.8924C79.5594 70.9831 79.654 67.9717 79.1703 65.0263C78.7418 65.3262 78.5104 65.4548 78.3132 65.6648C74.9322 68.6901 71.5683 71.7412 68.1702 74.7494C67.0445 75.8824 65.5885 76.6292 64.0116 76.8825C62.4346 77.1359 60.818 76.8826 59.3941 76.1592C57.9414 75.4734 56.7256 74.3709 55.9014 72.992C55.0773 71.6131 54.682 70.0201 54.766 68.4159V67.0275C54.1447 67.4817 53.6905 67.7859 53.2662 68.1287C36.7396 81.3615 20.2159 94.5842 3.69496 107.797C2.94933 108.393 2.05801 109.721 1.08098 108.431C0.103957 107.141 1.59092 106.61 2.34083 106.01C19.953 91.8774 37.5738 77.7576 55.2031 63.6507C58.0742 61.3496 58.2628 60.3854 56.3944 56.7301L55.2803 57.7757C52.2249 60.6168 49.1353 63.4193 46.1271 66.3075C44.8931 67.4978 43.3476 68.3148 41.6691 68.6641C39.9906 69.0135 38.2476 68.8809 36.6412 68.2818C35.0348 67.6827 33.6306 66.6415 32.5908 65.2784C31.5509 63.9153 30.9178 62.2858 30.7646 60.5782C30.1947 61.0067 29.7019 61.3196 29.2348 61.6838L3.09503 81.9443C2.64419 82.3864 2.13005 82.7591 1.5695 83.0498C1.14643 83.1777 0.692134 83.155 0.283936 82.9856V119.671H27.0922C26.9925 119.451 26.9453 119.21 26.9542 118.969C26.9631 118.727 27.028 118.491 27.1436 118.279Z" fill="#FFCEBF"/>
            <path d="M99.5652 1.82096C98.8367 4.20782 98.1297 6.59897 97.4912 9.01154C96.9014 10.7164 96.97 12.5802 97.6836 14.2371C98.3971 15.8941 99.704 17.2246 101.348 17.9676C106.376 20.6107 112.042 21.798 117.709 21.3958V2.22806C117.646 1.80781 117.669 1.37914 117.777 0.968207C117.897 0.73576 118.049 0.520916 118.227 0.329712H99.5481C99.8352 0.663958 99.7366 1.25103 99.5652 1.82096Z" fill="#FF6196"/>
            <path d="M62.051 42.9976C61.9621 45.137 61.2137 47.1966 59.9084 48.894C55.2418 54.9179 49.8828 60.3719 43.9417 65.1435C42.9836 66.0304 41.7693 66.591 40.4728 66.745C39.1764 66.8989 37.8646 66.6383 36.7254 66.0005C35.5916 65.5161 34.6356 64.6925 33.9887 63.6428C33.3419 62.5932 33.036 61.369 33.113 60.1384C33.2502 58.627 33.8777 57.202 34.8999 56.0803C41.5434 49.7455 48.7414 44.019 56.4074 38.9695C56.9094 38.5758 57.5226 38.3499 58.1601 38.3237C58.7976 38.2976 59.4272 38.4725 59.9598 38.8238C60.6598 39.2585 61.2258 39.8786 61.5949 40.6153C61.9641 41.352 62.1219 42.1766 62.051 42.9976Z" fill="#FF87AF"/>
            <path d="M56.9126 68.97C56.8131 68.0228 56.9347 67.0654 57.2678 66.1731C57.6009 65.2809 58.1365 64.478 58.8324 63.8277C65.3372 57.8281 72.3163 52.3638 79.7013 47.4883C79.9241 47.3468 80.1298 47.2054 80.3741 47.0597C81.0192 46.594 81.8008 46.356 82.5959 46.3832C83.3911 46.4103 84.1546 46.7011 84.7664 47.2097C85.3584 47.7112 85.7772 48.3865 85.9634 49.1396C86.1496 49.8928 86.0936 50.6854 85.8034 51.4049C84.8691 54.5168 83.1448 57.3337 80.7983 59.5811C76.0329 64.2758 71.1753 68.8762 66.2286 73.3795C65.4836 74.1456 64.5051 74.6422 63.4469 74.7911C62.3888 74.9401 61.3111 74.7329 60.3836 74.2022C59.409 73.6958 58.5791 72.9499 57.9719 72.0347C57.3648 71.1194 57.0002 70.0648 56.9126 68.97Z" fill="#FF87AF"/>
            <path d="M87.8344 71.8015C86.6346 73.0871 85.4004 74.3126 84.2477 75.6282C83.9011 76.1367 83.6136 76.683 83.3907 77.2566C84.0249 77.4451 84.7662 77.9422 85.2804 77.7665C87.8987 76.888 90.4527 75.8339 93.3281 74.724C92.7024 76.1638 92.231 77.4922 91.5668 78.7092C88.8305 83.3078 85.4038 87.4587 81.4066 91.0164C79.8868 92.4819 78.3084 93.8832 76.6715 95.2201C75.8046 95.9395 74.7622 96.4157 73.6509 96.6001C72.5396 96.7844 71.3992 96.6702 70.3465 96.2692C69.2938 95.8681 68.3665 95.1947 67.6595 94.3176C66.9525 93.4406 66.4912 92.3916 66.3227 91.2778C66.254 90.6585 66.3087 90.0317 66.4838 89.4337C66.6589 88.8357 66.9507 88.2784 67.3426 87.7939C73.174 81.4614 79.8384 75.9503 87.1531 71.4115C87.242 71.3771 87.3363 71.3582 87.4316 71.3558L87.8344 71.8015Z" fill="#FF87AF"/>
            <path d="M97.6724 54.7335L105.004 22.1659L110.147 23.37L107.494 31.4305C105.017 38.9296 102.51 46.4287 100.093 53.9364C99.6221 55.3248 99.0051 55.5819 97.6724 54.7335Z" fill="#FF6196"/>
            <path d="M89.3857 73.8885C90.1614 70.9274 90.9327 68.1892 91.5841 65.421C92.2189 62.7364 93.4263 60.2207 95.1236 58.0461C96.1649 56.6791 97.3348 57.2234 98.5304 57.519C99.636 57.789 99.9145 58.5989 99.9616 59.6616C100.136 62.6005 99.241 65.5031 97.4419 67.8335C95.3002 70.4887 92.5317 72.5695 89.3857 73.8885Z" fill="#FF6196"/>
            <path d="M119.944 3.83936C120.008 2.88498 119.983 1.92674 119.871 0.976845C119.783 0.711516 119.607 0.483621 119.374 0.329779C119.184 0.175101 118.961 0.0652523 118.723 0.00838844C118.585 -0.0173228 118.393 0.124089 118.208 0.325493C118.03 0.516698 117.878 0.731542 117.758 0.96399C117.65 1.37492 117.627 1.80359 117.69 2.22384V21.3873C112.023 21.7895 106.357 20.6022 101.329 17.9591C99.685 17.2161 98.3781 15.8856 97.6646 14.2286C96.951 12.5717 96.8824 10.7079 97.4722 9.00304C98.1107 6.59046 98.8178 4.19932 99.5462 1.81246C99.7177 1.24253 99.8162 0.655454 99.5462 0.321208C99.3961 0.158494 99.1888 0.0602123 98.9677 0.0469556C98.6847 0.0500088 98.4105 0.146413 98.1878 0.321208C97.8674 0.512888 97.6121 0.796593 97.4551 1.1354C96.598 3.70652 95.8438 6.30336 95.1882 8.9259C94.9407 9.95936 94.874 11.0279 94.9911 12.0841C95.1569 13.9952 95.8676 15.8186 97.0389 17.3377C98.2102 18.8569 99.7928 20.0081 101.599 20.6545C102.409 20.993 102.884 21.3273 102.657 22.3943C102.344 23.7484 102.04 25.1026 101.732 26.461C99.632 35.6656 97.5436 44.8745 95.4667 54.0877C95.4082 54.4985 95.2275 54.8822 94.9482 55.189C93.5793 56.2771 92.4291 57.6148 91.5586 59.1314C90.4493 61.1327 89.6817 63.3052 89.2875 65.5592C89.2118 66.2782 88.952 66.9655 88.5331 67.5548C88.1143 68.144 87.5505 68.6153 86.8963 68.9231C85.1094 69.8273 83.4682 70.9971 81.4841 72.2141C81.6164 69.8282 81.5906 67.4361 81.407 65.0535C81.256 64.3206 81.288 63.5618 81.5003 62.8442C81.7126 62.1267 82.0985 61.4725 82.624 60.9397C85.2375 58.3506 87.1005 55.1015 88.0148 51.538C88.2878 50.712 88.3627 49.8333 88.2333 48.9729C88.104 48.1126 87.774 47.2948 87.27 46.5856C86.7661 45.8764 86.1023 45.2957 85.3325 44.8905C84.5626 44.4853 83.7081 44.267 82.8382 44.2531C81.4298 44.2374 80.047 44.6304 78.8573 45.3844C74.7683 48.1767 70.7504 51.0715 66.8073 54.0663C64.4633 55.8318 62.2564 57.7858 59.9852 59.637C59.8873 59.5319 59.8025 59.4154 59.7324 59.2899C59.689 58.9744 59.604 58.6661 59.4796 58.3729C57.5812 55.4418 58.8968 53.3121 60.958 51.1223C63.1053 48.8714 64.2919 45.8727 64.2661 42.7619C64.3327 41.1769 63.8363 39.6194 62.8649 38.3653C62.3474 37.7286 61.7096 37.2001 60.988 36.8097C59.9629 36.2487 58.7908 36.0145 57.6289 36.1386C56.467 36.2627 55.3708 36.7391 54.4873 37.5039L53.2917 38.361C50.5621 40.315 47.7981 42.2177 45.1713 44.3089C41.3364 47.3705 37.5841 50.5341 33.9183 53.7963C32.2042 55.309 30.953 57.3744 29.1746 58.78C19.9014 66.1034 10.5297 73.294 1.1922 80.5317C0.871132 80.7232 0.575909 80.9551 0.313735 81.2216C0.286745 81.2606 0.263774 81.3023 0.245172 81.3459C0.0480521 81.8044 -0.119071 82.5629 0.112331 82.8414C0.169054 82.9019 0.23761 82.95 0.313735 82.9828C0.721934 83.1523 1.17623 83.175 1.5993 83.0471C2.15985 82.7563 2.67399 82.3837 3.12483 81.9415L29.2646 61.6811C29.7317 61.3168 30.2245 60.9869 30.7944 60.5755C30.9476 62.2831 31.5807 63.9125 32.6206 65.2757C33.6604 66.6388 35.0646 67.68 36.671 68.2791C38.2774 68.8782 40.0204 69.0107 41.6989 68.6614C43.3774 68.312 44.9229 67.4951 46.1569 66.3048C49.1565 63.4166 52.2547 60.6141 55.3101 57.773L56.4242 56.7274C58.2926 60.3827 58.104 61.3468 55.2329 63.648C37.5893 77.7663 19.9585 91.8875 2.34064 106.012C1.59073 106.611 0.108046 107.156 1.08079 108.433C2.05353 109.71 2.94914 108.394 3.69476 107.798C20.2242 94.5972 36.7423 81.3787 53.2489 68.1432C53.6774 67.8003 54.1273 67.4961 54.7487 67.0419V68.4303C54.6647 70.0345 55.0599 71.6275 55.8841 73.0064C56.7082 74.3853 57.924 75.4879 59.3767 76.1736C60.8007 76.897 62.4173 77.1503 63.9942 76.897C65.5711 76.6436 67.0271 75.8968 68.1528 74.7638C71.551 71.7642 74.9149 68.7045 78.2959 65.6792C78.5102 65.4863 78.7587 65.3406 79.153 65.0407C79.6367 67.9861 79.542 70.9975 78.8744 73.9068C78.7096 74.2936 78.4394 74.6262 78.0945 74.8667C75.3005 77.2807 72.4966 79.6847 69.6826 82.0787L28.4075 117.115C27.9243 117.437 27.4972 117.836 27.1434 118.297C27.0305 118.507 26.9672 118.741 26.9582 118.979C26.9493 119.217 26.9951 119.455 27.092 119.673C27.2856 119.818 27.5094 119.917 27.7468 119.964C27.9842 120.011 28.2291 120.004 28.4633 119.943C28.648 119.889 28.8181 119.794 28.9603 119.664C29.1746 119.493 29.3889 119.274 29.5817 119.099L59.4196 93.8158C60.8551 92.5988 62.3035 91.399 63.8162 90.1306C63.8928 90.3343 63.9544 90.5434 64.0005 90.7562C64.0861 92.4102 64.6556 94.0027 65.6383 95.3358C66.6211 96.669 67.9737 97.6842 69.5284 98.2553C71.0641 98.9225 72.7662 99.108 74.4096 98.7874C76.053 98.4669 77.5606 97.6552 78.733 96.4598C80.7213 94.6472 82.684 92.8045 84.6552 90.9705C85.9407 89.792 87.1834 88.6093 88.5376 87.3366C88.7898 88.2162 88.9944 89.1089 89.1503 90.0106C89.3473 92.1094 89.0578 94.2253 88.3042 96.1941C87.5506 98.1628 86.3532 99.9313 84.8051 101.362C79.8386 106.71 74.7606 111.942 69.7255 117.217C69.3955 117.56 68.9413 117.843 68.7613 118.25C68.5813 118.657 68.4657 119.454 68.6799 119.626L68.7399 119.664C69.1892 119.883 69.6945 119.959 70.1883 119.883C70.3267 119.854 70.45 119.777 70.5354 119.664C70.6554 119.54 70.7711 119.386 70.8868 119.27C74.9663 115.053 79.0672 110.858 83.1168 106.611C84.7513 104.955 86.288 103.205 87.7191 101.371C89.5851 99.3049 90.8224 96.7492 91.2855 94.0042C91.7486 91.2591 91.4181 88.439 90.3331 85.8754C90.2164 85.3037 90.3304 84.7092 90.6502 84.2213C90.9287 83.7413 91.2372 83.2742 91.5543 82.8114C92.569 81.494 93.4141 80.0544 94.0698 78.5262C95.3368 74.7758 97.2817 71.2898 99.8076 68.2417C100.969 66.7695 101.768 65.0448 102.14 63.207C102.512 61.3692 102.447 59.4696 101.95 57.6616C101.775 56.9741 101.775 56.2535 101.95 55.5661C104.119 48.8512 106.351 42.1577 108.562 35.4599L111.519 26.4867L112.432 23.7142C114.377 23.7142 116.211 23.6756 118.037 23.7142C119.554 23.757 120.017 23.0457 120 21.5715C119.91 15.658 119.944 9.74866 119.944 3.83936ZM43.9371 65.1435C42.9791 66.0304 41.7647 66.591 40.4683 66.745C39.1719 66.8989 37.86 66.6383 36.7208 66.0006C35.587 65.5162 34.631 64.6925 33.9842 63.6429C33.3373 62.5932 33.0314 61.369 33.1084 60.1384C33.2457 58.6271 33.8732 57.202 34.8953 56.0803C41.5388 49.7455 48.7368 44.019 56.4028 38.9695C56.8212 38.6737 57.2972 38.4693 57.7998 38.3696C58.1369 38.3074 58.4825 38.3074 58.8196 38.3696C59.2234 38.4482 59.6086 38.6023 59.9552 38.8238C60.656 39.2588 61.2224 39.8796 61.5916 40.6171C61.9607 41.3547 62.1182 42.1802 62.0464 43.0019C61.9576 45.1413 61.2092 47.2009 59.9038 48.8983C55.237 54.9207 49.878 60.3733 43.9371 65.1435ZM66.2202 73.4097C65.4752 74.1758 64.4966 74.6724 63.4385 74.8213C62.3803 74.9703 61.3027 74.7631 60.3752 74.2324C59.3988 73.7249 58.5678 72.977 57.9605 72.0593C57.3533 71.1416 56.9897 70.0844 56.9042 68.9874C56.8047 68.0401 56.9263 67.0828 57.2594 66.1905C57.5925 65.2982 58.1281 64.4954 58.8239 63.8451C65.3288 57.8454 72.3078 52.3811 79.6929 47.5056C79.9157 47.3642 80.1214 47.2228 80.3657 47.0771C81.0107 46.6114 81.7923 46.3734 82.5875 46.4005C83.3826 46.4277 84.1462 46.7185 84.758 47.2271C85.35 47.7285 85.7688 48.4038 85.955 49.157C86.1412 49.9101 86.0852 50.7028 85.795 51.4223C84.8607 54.5342 83.1364 57.351 80.7899 59.5985C76.0633 64.3208 71.1482 68.8674 66.2288 73.3925L66.2202 73.4097ZM91.5501 78.7276C88.8175 83.319 85.3967 87.4638 81.407 91.0176C79.8872 92.4831 78.3088 93.8844 76.6718 95.2214C75.8049 95.9408 74.7625 96.417 73.6512 96.6013C72.5399 96.7856 71.3996 96.6714 70.3469 96.2704C69.2942 95.8694 68.3669 95.1959 67.6599 94.3189C66.9529 93.4419 66.4915 92.3928 66.323 91.279C66.2543 90.6597 66.3091 90.0329 66.4842 89.435C66.6592 88.837 66.9511 88.2796 67.3429 87.7951C73.1743 81.4627 79.8387 75.9515 87.1534 71.4128C87.2424 71.3783 87.3366 71.3594 87.432 71.3571L87.8605 71.7856C86.6606 73.0712 85.4265 74.2967 84.2738 75.6123C83.9272 76.1208 83.6396 76.6671 83.4167 77.2407C84.0509 77.4292 84.7923 77.9263 85.3065 77.7506C87.3763 77.0564 89.4117 76.2508 91.5929 75.3937L93.3541 74.7081C92.6942 76.1651 92.2228 77.4935 91.5586 78.7105L91.5501 78.7276ZM97.4336 67.8646C95.8352 69.8996 93.8317 71.5806 91.5501 72.8012C90.8444 73.1954 90.1202 73.564 89.3775 73.9068C90.1402 70.9885 90.903 68.2846 91.5501 65.5506L91.5758 65.4392C92.2106 62.7546 93.418 60.2389 95.1153 58.0644C96.1566 56.6974 97.3265 57.2416 98.5221 57.5373C99.6277 57.8073 99.9062 58.6172 99.9533 59.6799C100.129 62.6162 99.2372 65.5171 97.4422 67.8475L97.4336 67.8646ZM107.461 31.4404C104.984 38.9395 102.477 46.4386 100.06 53.9463C99.6062 55.3561 98.9892 55.6132 97.6565 54.7648L104.011 26.5124L104.988 22.1758L110.131 23.3799L109.098 26.5124L107.461 31.4404Z" fill="#1F2626"/>
        </g>
        <defs>
            <clipPath id="clip0_1_1803">
                <rect width="120" height="120" fill="white"/>
            </clipPath>
        </defs>
    </symbol>

    <symbol id="tsIcon" width="120x" height="120px" viewBox="-8 -8 138 138">
        <path d="M0 60V120H60H120V60V0H60H0V60Z" fill="#007ACC"/>
        <path d="M26.5373 60.3979L26.4992 65.3122H34.3087H42.1182L42.1182 87.5026V109.693H47.6421H53.1659V87.5026L53.1659 65.3122H60.9754H68.7849V60.4931C68.7849 57.8264 68.7278 55.5979 68.6516 55.5407C68.5944 55.4645 59.0897 55.4264 47.5659 55.4455L26.5944 55.5026L26.5373 60.3979Z" fill="white"/>
        <path d="M96.8265 55.3636C99.8741 56.1255 102.198 57.4779 104.331 59.6874C105.436 60.8684 107.074 63.0208 107.207 63.535C107.246 63.6874 102.026 67.1922 98.8646 69.1541C98.7503 69.2303 98.2931 68.7351 97.7789 67.9731C96.236 65.7255 94.6169 64.7541 92.1408 64.5827C88.5027 64.335 86.1598 66.2398 86.1789 69.4208C86.1789 70.3541 86.3122 70.9065 86.6931 71.6684C87.4931 73.3255 88.9789 74.316 93.6455 76.3351C102.236 80.0303 105.912 82.4684 108.198 85.935C110.75 89.8017 111.322 95.9731 109.588 100.564C107.684 105.554 102.96 108.945 96.3122 110.068C94.255 110.43 89.3789 110.373 87.1693 109.973C82.3503 109.116 77.7789 106.735 74.9598 103.611C73.855 102.392 71.7027 99.2112 71.836 98.9827C71.8931 98.9065 72.3884 98.6017 72.9408 98.2779C73.4741 97.9731 75.4931 96.8112 77.3979 95.7065L80.8455 93.7065L81.5693 94.7731C82.5789 96.316 84.7884 98.4303 86.1217 99.135C89.9503 101.154 95.2074 100.868 97.7979 98.5446C98.9027 97.535 99.3598 96.4874 99.3598 94.9446C99.3598 93.5541 99.1884 92.9446 98.4646 91.897C97.5312 90.5636 95.6265 89.4398 90.2169 87.097C84.0265 84.4303 81.3598 82.7731 78.9217 80.1446C77.5122 78.6208 76.1789 76.1827 75.6265 74.1446C75.1693 72.4493 75.055 68.2017 75.4169 66.4874C76.6931 60.5065 81.2074 56.335 87.7217 55.097C89.836 54.697 94.7503 54.8493 96.8265 55.3636Z" fill="white"/>
    </symbol>

    <symbol id="linkedinLogo" viewBox="0 0 48 49">
        <path d="M5 8.22175C5 6.71837 6.24925 5.5 7.79062 5.5H40.2094C41.7507 5.5 43 6.71837 43 8.22175V40.7783C43 42.2816 41.7507 43.5 40.2094 43.5H7.79062C6.24925 43.5 5 42.2816 5 40.7783V8.22175ZM16.7396 37.3108V20.1514H11.0373V37.3108H16.7396ZM13.8896 17.8073C15.8775 17.8073 17.1149 16.4915 17.1149 14.8433C17.0792 13.1594 15.8799 11.8793 13.9276 11.8793C11.9754 11.8793 10.7 13.1617 10.7 14.8433C10.7 16.4915 11.9374 17.8073 13.8516 17.8073H13.8896ZM25.5461 37.3108V27.7276C25.5461 27.2146 25.5841 26.7016 25.7361 26.3359C26.147 25.3123 27.0851 24.2506 28.6621 24.2506C30.726 24.2506 31.5501 25.8229 31.5501 28.1314V37.3108H37.2525V27.4688C37.2525 22.1962 34.4405 19.7453 30.688 19.7453C27.6623 19.7453 26.3061 21.4078 25.5461 22.5786V22.638H25.5081C25.5207 22.6182 25.5334 22.5984 25.5461 22.5786V20.1514H19.8461C19.9174 21.7616 19.8461 37.3108 19.8461 37.3108H25.5461Z" fill="currentColor"/>
    </symbol>

    <symbol id="mailLogo" viewBox="0 0 48 49">
        <path fill-rule="evenodd" clip-rule="evenodd" d="M3.13125 12.6467C3.3959 11.4686 4.04647 10.4168 4.97642 9.66349C5.90637 8.91014 7.06057 8.49992 8.25 8.5H39.75C40.9394 8.49992 42.0936 8.91014 43.0236 9.66349C43.9535 10.4168 44.6041 11.4686 44.8687 12.6467L24 25.604L3.13125 12.6467ZM3 15.692V34.636L18.2329 25.148L3 15.692ZM20.7476 26.7133L3.50138 37.452C3.92748 38.3648 4.60001 39.1358 5.44068 39.6754C6.28135 40.215 7.25558 40.501 8.25 40.5H39.75C40.7443 40.5002 41.7181 40.2136 42.5583 39.6736C43.3985 39.1335 44.0705 38.3622 44.496 37.4493L27.2498 26.7107L24 28.7293L20.7476 26.7107V26.7133ZM29.7671 25.1507L45 34.636V15.692L29.7671 25.148V25.1507Z" fill="currentColor"/>
    </symbol>

    <symbol id="gitHubLogo" width="55px" height="55px" viewBox="4 4 27 27">
        <path d="M16 6C10.1988 6 5.5 10.5882 5.5 16.2529C5.5 20.7899 8.50562 24.6219 12.6794 25.9804C13.2044 26.0701 13.4012 25.7625 13.4012 25.4934C13.4012 25.2499 13.3881 24.4425 13.3881 23.5838C10.75 24.058 10.0675 22.9558 9.8575 22.3791C9.73938 22.0843 9.2275 21.1743 8.78125 20.9308C8.41375 20.7386 7.88875 20.2644 8.76813 20.2516C9.595 20.2388 10.1856 20.9949 10.3825 21.3025C11.3275 22.8533 12.8369 22.4175 13.4406 22.1484C13.5325 21.4819 13.8081 21.0334 14.11 20.777C11.7737 20.5207 9.3325 19.6364 9.3325 15.7147C9.3325 14.5997 9.73938 13.6769 10.4088 12.9592C10.3038 12.7029 9.93625 11.6519 10.5138 10.2422C10.5138 10.2422 11.3931 9.97301 13.4012 11.2931C14.2413 11.0624 15.1338 10.947 16.0263 10.947C16.9188 10.947 17.8113 11.0624 18.6513 11.2931C20.6594 9.9602 21.5387 10.2422 21.5387 10.2422C22.1163 11.6519 21.7488 12.7029 21.6438 12.9592C22.3131 13.6769 22.72 14.5868 22.72 15.7147C22.72 19.6492 20.2656 20.5207 17.9294 20.777C18.31 21.0975 18.6381 21.7126 18.6381 22.6738C18.6381 24.0452 18.625 25.1474 18.625 25.4934C18.625 25.7625 18.8219 26.0829 19.3469 25.9804C21.4314 25.2935 23.2428 23.9854 24.526 22.2403C25.8092 20.4953 26.4996 18.4012 26.5 16.2529C26.5 10.5882 21.8013 6 16 6Z" fill="currentColor"/>
    </symbol>

    <symbol id="goToTop" width="16" height="15" viewBox="0 0 16 15">
        <path d="M6.80722 4.2806V15H9.19278V4.2806L14.3134 9.08118L16 7.5L8 0L0 7.5L1.6866 9.08118L6.80722 4.2806Z" fill="currentColor"/>
    </symbol>
</svg>